# xmcd
# 
# Track frame offsets:
#     182
#     24745
#     44350
#     67400
#     95855
#     111227
#     131592
#     151447
#     175180
#     198722
#     215757
#     241880
# 
# Disc length: 3472
# 
# Revision: 16
# Processed by: cddbd v1.5.2PL0 Copyright (c) Steve Scherf et al.
# Submitted via: fre:ac v1.0.27
# 
DISCID=bc0d8e0c
DTITLE=Paco de Lucía - Antología - Disc 1
DYEAR=1996
DGENRE=Flamenco
TTITLE0=Almoraima
TTITLE1=Canción de Amor
TTITLE2=Gloria al Niño Ricardo
TTITLE3=Sólo Quiero Caminar
TTITLE4=Punta Umbría
TTITLE5=Río Ancho
TTITLE6=Danza Ritual del Fuego
TTITLE7=Compadres
TTITLE8=Fuente y Caudal
TTITLE9=Casilda
TTITLE10=Cepa Andaluza
TTITLE11=Rumba Improvisada
EXTD=Disc 1 of 2 CD set\n\n YEAR: 1996
EXTT0=
EXTT1=
EXTT2=
EXTT3=
EXTT4=
EXTT5=
EXTT6=
EXTT7=
EXTT8=
EXTT9=
EXTT10=
EXTT11=
PLAYORDER=
